<svg preserveAspectRatio="none" width="100%" height="100%" viewBox="0 0 108 16" fill="none" xmlns="http://www.w3.org/2000/svg">
<path d="M0 15.9313H4.92533L5.24 14.7367H17.1947L17.5053 15.9313H22.4307V13.3H0V15.9313ZM0 11.4953H6.084L6.39467 10.3047H16.036L16.3467 11.4953H22.4307V8.868H0V11.4953ZM0 7.05867H7.23867L7.54933 5.868H14.8813L15.192 7.05867H22.4307V4.43133H0V7.05867ZM0 0V2.62733H8.39333L8.704 1.43667H13.7267L14.0373 2.62733H22.4307V0H0ZM66.2513 14.56L62.42 9.796C63.36 9.49267 64.1153 9.00933 64.6767 8.35933C65.294 7.638 65.63 6.656 65.678 5.43267C65.678 4.60933 65.5327 3.87667 65.25 3.25267C64.9767 2.63626 64.56 2.0941 64.0347 1.67133C63.518 1.25267 62.884 0.931333 62.1493 0.722667C61.4227 0.513333 60.6067 0.404667 59.7267 0.404667H48.52V15.5313H51.3253V10.1607H59.44L63.74 15.51H66.2593V14.5567L66.2513 14.56ZM61.826 7.20467C61.2127 7.64467 60.2433 7.86867 58.9473 7.86867H51.3173V2.69667H59.2067C60.406 2.69667 61.302 2.928 61.8753 3.38267C62.4487 3.83733 62.7273 4.46533 62.7273 5.30267C62.7273 6.14 62.4327 6.768 61.8273 7.20133V7.20467H61.826ZM85.7493 14.5133L77.9567 7.96533L85.7493 1.41867V0.396667H82.9267L75.248 6.944H70.048V0.397333H67.242V15.5373H70.048V9.24H75.5833L82.9307 15.538H85.7493V14.5127V14.5133ZM39.9387 0.523333L39.87 0.396667H35.5787L35.51 0.523333L27.6167 14.65V15.534H30.314L32.7847 11.0873H42.668L45.1387 15.534H47.836V14.65L39.9387 0.523333ZM34.0807 8.78867L37.714 2.27L37.7267 2.288L37.7387 2.27L41.372 8.78867H34.0807ZM89.548 0.396667H86.742V15.5307H89.548V0.396667ZM105.953 7.85067C105.279 7.522 104.407 7.26933 103.365 7.104C102.348 6.944 101.096 6.82533 99.6513 6.75733C98.7596 6.71323 97.8696 6.63985 96.9827 6.53733C96.2393 6.44667 95.6333 6.31667 95.1773 6.15067C94.7413 5.99533 94.4187 5.78933 94.2207 5.54067C94.0273 5.29533 93.9267 4.974 93.9267 4.59133C93.9267 4.20867 94.0473 3.866 94.3013 3.59133C94.564 3.30667 94.9433 3.06467 95.424 2.88067C95.9247 2.68933 96.5387 2.54067 97.2407 2.44733C98.0332 2.34599 98.8317 2.29788 99.6307 2.30333C100.393 2.30333 101.104 2.35667 101.743 2.46933C102.364 2.574 102.917 2.754 103.381 3.00667C103.821 3.24102 104.198 3.57787 104.479 3.98867C104.755 4.39667 104.924 4.916 104.984 5.53667L105.004 5.74267H108L107.976 5.49733C107.905 4.83952 107.747 4.19397 107.507 3.57733C107.249 2.91333 106.809 2.31067 106.199 1.79067C105.589 1.26733 104.755 0.834 103.717 0.502C102.687 0.173333 101.339 0.004 99.7033 0.004C98.1893 0.004 96.8733 0.130667 95.7913 0.379333C94.7053 0.628 93.8007 0.971333 93.0987 1.39733C92.388 1.82667 91.8553 2.33933 91.528 2.91667C91.2043 3.46964 91.0329 4.09856 91.0313 4.73933C91.0313 5.584 91.2007 6.284 91.532 6.822C91.8673 7.36333 92.392 7.796 93.0947 8.11067C93.7727 8.41333 94.6407 8.63333 95.6707 8.764C96.684 8.89 97.8947 8.97667 99.2673 9.016C101.311 9.128 102.828 9.37 103.781 9.73467C104.669 10.074 105.097 10.6227 105.081 11.4093C105.069 12.196 104.572 12.7593 103.563 13.124C102.493 13.51 101.007 13.7047 99.1427 13.7047C97.2767 13.7047 95.9807 13.4047 95.0527 12.8133C94.132 12.2287 93.6393 11.42 93.5507 10.348L93.5347 10.1387H90.5353L90.5593 10.384C90.624 11.016 90.7893 11.6653 91.052 12.3187C91.3227 12.9867 91.7787 13.6 92.404 14.1453C93.0293 14.69 93.8893 15.1413 94.96 15.484C96.0213 15.8273 97.4027 16 99.0693 16C100.737 16 102.129 15.8847 103.244 15.6613C104.367 15.4333 105.291 15.1087 105.993 14.694C106.704 14.2713 107.217 13.7627 107.523 13.174C107.83 12.5845 107.988 11.9291 107.984 11.2647C107.984 10.4493 107.819 9.76 107.495 9.21133C107.168 8.65533 106.647 8.20067 105.949 7.858L105.953 7.85067Z" fill="white"/>
</svg>
